<?xml version="1.0" encoding="utf-8"?>
<svg version="1.1" xmlns:xlink="http://www.w3.org/1999/xlink" width="250px" height="250px" xmlns="http://www.w3.org/2000/svg">
  <g transform="matrix(1 0 0 1 125 -138 )">
    <path d="M 0 138  C 70 138  125 193  125 263  C 125 333  70 388  0 388  C -70 388  -125 333  -125 263  C -125 193  -70 138  0 138  Z " fill-rule="nonzero" fill="#f2f2f2" stroke="none" />
    <path d="M 0 138.5  C 69.72 138.5  124.5 193.28  124.5 263  C 124.5 332.72  69.72 387.5  0 387.5  C -69.72 387.5  -124.5 332.72  -124.5 263  C -124.5 193.28  -69.72 138.5  0 138.5  Z " stroke-width="1" stroke="#797979" fill="none" />
  </g>
</svg>