<?xml version="1.0" encoding="utf-8"?>
<svg version="1.1" xmlns:xlink="http://www.w3.org/1999/xlink" width="25px" height="14px" xmlns="http://www.w3.org/2000/svg">
  <g transform="matrix(1 0 0 1 -10 -10 )">
    <path d="M 3.44587053571429 11.7486979166667  C 3.52957589285714 11.8033854166667  3.57142857142857 11.8732638888889  3.57142857142857 11.9583333333333  L 3.57142857142857 13.7083333333333  C 3.57142857142857 13.7934027777778  3.52957589285714 13.86328125  3.44587053571429 13.91796875  C 3.36216517857143 13.97265625  3.25520833333333 14  3.125 14  L 0.446428571428571 14  C 0.316220238095238 14  0.209263392857143 13.97265625  0.125558035714286 13.91796875  C 0.0418526785714286 13.86328125  0 13.7934027777778  0 13.7083333333333  L 0 11.9583333333333  C 0 11.8732638888889  0.0418526785714286 11.8033854166667  0.125558035714286 11.7486979166667  C 0.209263392857143 11.6940104166667  0.316220238095238 11.6666666666667  0.446428571428571 11.6666666666667  L 3.125 11.6666666666667  C 3.25520833333333 11.6666666666667  3.36216517857143 11.6940104166667  3.44587053571429 11.7486979166667  Z M 8.80301339285714 10.58203125  C 8.88671875 10.63671875  8.92857142857143 10.7065972222222  8.92857142857143 10.7916666666667  L 8.92857142857143 13.7083333333333  C 8.92857142857143 13.7934027777778  8.88671875 13.86328125  8.80301339285714 13.91796875  C 8.71930803571429 13.97265625  8.61235119047619 14  8.48214285714286 14  L 5.80357142857143 14  C 5.6733630952381 14  5.56640625 13.97265625  5.48270089285714 13.91796875  C 5.39899553571429 13.86328125  5.35714285714286 13.7934027777778  5.35714285714286 13.7083333333333  L 5.35714285714286 10.7916666666667  C 5.35714285714286 10.7065972222222  5.39899553571429 10.63671875  5.48270089285714 10.58203125  C 5.56640625 10.52734375  5.6733630952381 10.5  5.80357142857143 10.5  L 8.48214285714286 10.5  C 8.61235119047619 10.5  8.71930803571429 10.52734375  8.80301339285714 10.58203125  Z M 14.16015625 8.24869791666667  C 14.2438616071429 8.30338541666667  14.2857142857143 8.37326388888889  14.2857142857143 8.45833333333333  L 14.2857142857143 13.7083333333333  C 14.2857142857143 13.7934027777778  14.2438616071429 13.86328125  14.16015625 13.91796875  C 14.0764508928571 13.97265625  13.969494047619 14  13.8392857142857 14  L 11.1607142857143 14  C 11.030505952381 14  10.9235491071429 13.97265625  10.83984375 13.91796875  C 10.7561383928571 13.86328125  10.7142857142857 13.7934027777778  10.7142857142857 13.7083333333333  L 10.7142857142857 8.45833333333333  C 10.7142857142857 8.37326388888889  10.7561383928571 8.30338541666667  10.83984375 8.24869791666667  C 10.9235491071429 8.19401041666667  11.030505952381 8.16666666666667  11.1607142857143 8.16666666666667  L 13.8392857142857 8.16666666666667  C 13.969494047619 8.16666666666667  14.0764508928571 8.19401041666667  14.16015625 8.24869791666667  Z M 19.5172991071429 4.74869791666667  C 19.6010044642857 4.80338541666667  19.6428571428571 4.87326388888889  19.6428571428571 4.95833333333333  L 19.6428571428571 13.7083333333333  C 19.6428571428571 13.7934027777778  19.6010044642857 13.86328125  19.5172991071429 13.91796875  C 19.43359375 13.97265625  19.3266369047619 14  19.1964285714286 14  L 16.5178571428571 14  C 16.3876488095238 14  16.2806919642857 13.97265625  16.1969866071429 13.91796875  C 16.11328125 13.86328125  16.0714285714286 13.7934027777778  16.0714285714286 13.7083333333333  L 16.0714285714286 4.95833333333333  C 16.0714285714286 4.87326388888889  16.11328125 4.80338541666667  16.1969866071429 4.74869791666667  C 16.2806919642857 4.69401041666667  16.3876488095238 4.66666666666667  16.5178571428571 4.66666666666667  L 19.1964285714286 4.66666666666667  C 19.3266369047619 4.66666666666667  19.43359375 4.69401041666667  19.5172991071429 4.74869791666667  Z M 24.8744419642857 0.08203125  C 24.9581473214286 0.13671875  25 0.20659722222222  25 0.291666666666667  L 25 13.7083333333333  C 25 13.7934027777778  24.9581473214286 13.86328125  24.8744419642857 13.91796875  C 24.7907366071429 13.97265625  24.6837797619048 14  24.5535714285714 14  L 21.875 14  C 21.7447916666667 14  21.6378348214286 13.97265625  21.5541294642857 13.91796875  C 21.4704241071429 13.86328125  21.4285714285714 13.7934027777778  21 13.7083333333333  L 21 0.291666666666667  C 21.4285714285714 0.20659722222222  21.4704241071429 0.13671875  21.5541294642857 0.08203125  C 21.6378348214286 0.02734375  21.7447916666667 0  21.875 0  L 24.5535714285714 0  C 24.6837797619048 0  24.7907366071429 0.02734375  24.8744419642857 0.08203125  Z " fill-rule="nonzero" fill="#ffffff" stroke="none" transform="matrix(1 0 0 1 10 10 )" />
  </g>
</svg>