<?xml version="1.0" encoding="utf-8"?>
<svg version="1.1" xmlns:xlink="http://www.w3.org/1999/xlink" width="18px" height="35px" xmlns="http://www.w3.org/2000/svg">
  <g transform="matrix(1 0 0 1 -198 -40 )">
    <path d="M 17.0779510022272 8.89723557692307  C 17.3318485523385 8.89723557692307  17.5590200445434 9.00240384615384  17.7594654788419 9.21274038461539  C 18 9.4931891025641  18.0467706013363 9.80168269230769  17.8997772828508 10.1382211538462  L 7.07572383073497 34.4741586538462  C 6.90200445434299 34.8247195512821  6.62138084632517 35  6.23385300668151 35  C 6.1804008908686 35  6.08685968819599 34.9859775641026  5.9532293986637 34.9579326923077  C 5.7260579064588 34.8878205128205  5.55567928730512 34.7546073717949  5.44209354120267 34.5582932692308  C 5.32850779510022 34.3619791666667  5.29844097995546 34.1516426282051  5.35189309576837 33.9272836538462  L 9.30066815144766 16.9320913461538  L 1.16258351893096 19.0564903846154  C 1.10913140311804 19.0705128205128  1.02895322939866 19.0775240384615  0.922048997772828 19.0775240384615  C 0.681514476614699 19.0775240384615  0.474387527839644 19.0004006410256  0.300668151447662 18.8461538461538  C 0.0601336302895323 18.6358173076923  -0.0267260579064588 18.3623798076923  0.0400890868596882 18.0258413461538  L 4.06904231625835 0.673076923076925  C 4.12249443207127 0.476762820512819  4.2293986636971 0.315504807692309  4.38975501113586 0.189302884615385  C 4.55011135857461 0.0631009615384603  4.73719376391982 0  4.95100222717149 0  L 11.5256124721604 0  C 11.7795100222717 0  11.9933184855234 0.0876402243589697  12.1670378619154 0.262920673076925  C 12.3407572383074 0.438201121794872  12.4276169265033 0.645032051282049  12.4276169265033 0.88341346153846  C 12.4276169265033 0.995592948717947  12.3942093541203 1.12179487179487  12.3273942093541 1.26201923076923  L 8.89977728285078 11.0006009615385  L 16.837416481069 8.93930288461539  C 16.9443207126949 8.91125801282051  17.0244988864143 8.89723557692307  17.0779510022272 8.89723557692307  Z " fill-rule="nonzero" fill="#ffffff" stroke="none" transform="matrix(1 0 0 1 198 40 )" />
  </g>
</svg>