<?xml version="1.0" encoding="utf-8"?>
<svg version="1.1" xmlns:xlink="http://www.w3.org/1999/xlink" width="90px" height="90px" xmlns="http://www.w3.org/2000/svg">
  <g transform="matrix(1 0 0 1 -162 -766 )">
    <path d="M 207 770  C 229.96 770  248 788.04  248 811  C 248 833.96  229.96 852  207 852  C 184.04 852  166 833.96  166 811  C 166 788.04  184.04 770  207 770  Z " fill-rule="nonzero" fill="#ffffff" stroke="none" />
    <path d="M 207 768.5  C 230.8 768.5  249.5 787.2  249.5 811  C 249.5 834.8  230.8 853.5  207 853.5  C 183.2 853.5  164.5 834.8  164.5 811  C 164.5 787.2  183.2 768.5  207 768.5  Z " stroke-width="5" stroke="#000000" fill="none" />
  </g>
</svg>